<?xml version="1.0" encoding="UTF-8" standalone="no"?>
<svg
   width="120"
   height="120"
   viewBox="0 0 120 120"
   fill="none"
   version="1.1"
   id="svg37"
   sodipodi:docname="icon.svg"
   inkscape:version="1.2.2 (b0a8486541, 2022-12-01)"
   inkscape:export-filename="icon.png"
   inkscape:export-xdpi="278.39999"
   inkscape:export-ydpi="278.39999"
   xmlns:inkscape="http://www.inkscape.org/namespaces/inkscape"
   xmlns:sodipodi="http://sodipodi.sourceforge.net/DTD/sodipodi-0.dtd"
   xmlns="http://www.w3.org/2000/svg"
   xmlns:svg="http://www.w3.org/2000/svg">
  <sodipodi:namedview
     id="namedview39"
     pagecolor="#505050"
     bordercolor="#eeeeee"
     borderopacity="1"
     inkscape:showpageshadow="0"
     inkscape:pageopacity="0"
     inkscape:pagecheckerboard="0"
     inkscape:deskcolor="#505050"
     showgrid="false"
     inkscape:zoom="2.2600903"
     inkscape:cx="78.094226"
     inkscape:cy="119.46425"
     inkscape:window-width="1916"
     inkscape:window-height="1023"
     inkscape:window-x="0"
     inkscape:window-y="0"
     inkscape:window-maximized="1"
     inkscape:current-layer="svg37" />
  <g
     clip-path="url(#clip0_0_3)"
     id="g30"
     transform="translate(8.2305,-1.9772)">
    <path
       d="M 51.9696,11.1015 103.539,39.3842 V 55.8626 L 51.9696,27.58 Z"
       fill="#ff7c00"
       fill-opacity="0.75"
       id="path2" />
    <path
       d="M 103.521,39.3847 51.7627,67.7738 V 84.3583 L 103.521,55.9692 Z"
       fill="#ff7c00"
       id="path4" />
    <path
       d="M -5.95093e-4,39.3847 51.7627,67.7738 V 84.3584 L -5.95093e-4,55.9693 Z"
       fill="#ff7c00"
       fill-opacity="0.75"
       id="path6" />
    <path
       d="M 51.9641,10.9954 0.00665283,39.3842 V 55.9688 L 51.9641,27.5801 Z"
       fill="#ff7c00"
       id="path8" />
    <path
       d="M 51.9696,39.703 103.539,67.9855 V 84.464 L 51.9696,56.1815 Z"
       fill="#ff7c00"
       fill-opacity="0.75"
       id="path10" />
    <path
       d="M 103.521,67.9851 51.7627,96.3742 V 112.959 L 103.521,84.5696 Z"
       fill="#ff7c00"
       id="path12" />
    <path
       d="M -5.95093e-4,67.9851 51.7627,96.3742 V 112.959 L -5.95093e-4,84.5697 Z"
       fill="#ff7c00"
       fill-opacity="0.75"
       id="path14" />
    <path
       d="M 51.9641,39.5958 0.00665283,67.9845 V 84.5691 L 51.9641,56.1805 Z"
       fill="#ff7c00"
       id="path16" />
  </g>
  <defs
     id="defs35">
    <clipPath
       id="clip0_0_3">
      <rect
         width="512"
         height="119.202"
         fill="#ffffff"
         id="rect32"
         x="0"
         y="0" />
    </clipPath>
  </defs>
</svg>
